#N canvas 913 52 451 692 12;
#X obj 12 127 ./adsr~;
#X msg 58 87 att \$1;
#X msg 167 87 dec \$1;
#X obj 276 62 * 0.01;
#X msg 276 87 sus \$1;
#X msg 385 87 rel \$1;
#X obj 12 12 r \$1-vel;
#X obj 58 37 r \$1-env\$2-att;
#X obj 167 37 r \$1-env\$2-dec;
#X obj 276 37 r \$1-env\$2-sus;
#X obj 385 37 r \$1-env\$2-rel;
#X obj 12 152 s~ \$1-env\$2;
#X obj 215 168 loadbang;
#X msg 215 193 legato 1;
#X connect 0 0 11 0;
#X connect 1 0 0 1;
#X connect 2 0 0 1;
#X connect 3 0 4 0;
#X connect 4 0 0 1;
#X connect 5 0 0 1;
#X connect 6 0 0 0;
#X connect 7 0 1 0;
#X connect 8 0 2 0;
#X connect 9 0 3 0;
#X connect 10 0 5 0;
#X connect 12 0 13 0;
#X connect 13 0 0 1;
