#N canvas 685 37 679 692 12;
#X msg 12 42 \$1 1;
#X obj 12 67 line~;
#X obj 12 392 *~;
#X obj 212 248 loadbang;
#X msg 212 273 1;
#X obj 212 303 -~;
#X obj 12 282 *~ 0.5;
#X obj 12 307 +~ 0.5;
#X obj 131 42 t f b, f 6;
#X msg 170 67 0;
#X msg 131 122 1;
#X msg 157 122 1;
#X msg 183 122 1;
#X obj 142 393 *~;
#X obj 212 393 *~;
#X obj 282 253 -~;
#X obj 300 228 wrap~;
#X obj 300 203 +~ 0.5;
#X obj 282 278 +~ 0.5;
#X msg 209 122 1;
#X obj 282 393 *~;
#X obj 131 97 sel 0 1 2 3 4, f 19;
#X msg 235 122 1;
#X obj 72 259 -~ 0.5;
#X obj 72 283 abs~;
#X obj 72 392 *~;
#X obj 12 433 lop~ 100;
#X obj 12 12 r \$1-lfo\$2-freq;
#X obj 131 12 r \$1-lfo\$2-shape;
#X msg 30 337 \$1 1;
#X obj 30 362 line~;
#X msg 90 337 \$1 1;
#X obj 90 362 line~;
#X msg 160 337 \$1 1;
#X obj 160 362 line~;
#X msg 230 337 \$1 1;
#X obj 230 362 line~;
#X msg 300 337 \$1 1;
#X obj 300 362 line~;
#X obj 12 458 s~ \$1-lfo\$2;
#X obj 72 307 *~ 2;
#X obj 311 47 r \$1-lfo\$2-reset;
#X msg 311 72 0;
#X obj 12 92 phasor~;
#X obj 12 257 cos~;
#X msg 434 197 triangle;
#X msg 494 197 saw-down;
#X msg 554 197 saw-up;
#X msg 600 197 square;
#X msg 374 197 sinewave;
#X obj 494 237 symbol;
#X msg 494 262 label \$1;
#X obj 494 287 s \$1-lfo\$2-shape-r;
#X obj 418 106 r \$1-lfo\$2-freq-sync;
#X connect 0 0 1 0;
#X connect 1 0 43 0;
#X connect 2 0 26 0;
#X connect 3 0 4 0;
#X connect 4 0 5 0;
#X connect 5 0 14 0;
#X connect 6 0 7 0;
#X connect 7 0 2 0;
#X connect 8 0 21 0;
#X connect 8 1 9 0;
#X connect 9 0 31 0;
#X connect 9 0 37 0;
#X connect 9 0 35 0;
#X connect 9 0 33 0;
#X connect 9 0 29 0;
#X connect 10 0 29 0;
#X connect 10 0 49 0;
#X connect 11 0 31 0;
#X connect 11 0 45 0;
#X connect 12 0 33 0;
#X connect 12 0 46 0;
#X connect 13 0 26 0;
#X connect 14 0 26 0;
#X connect 15 0 18 0;
#X connect 16 0 15 1;
#X connect 17 0 16 0;
#X connect 18 0 20 0;
#X connect 19 0 35 0;
#X connect 19 0 47 0;
#X connect 20 0 26 0;
#X connect 21 0 10 0;
#X connect 21 1 11 0;
#X connect 21 2 12 0;
#X connect 21 3 19 0;
#X connect 21 4 22 0;
#X connect 22 0 37 0;
#X connect 22 0 48 0;
#X connect 23 0 24 0;
#X connect 24 0 40 0;
#X connect 25 0 26 0;
#X connect 26 0 39 0;
#X connect 27 0 0 0;
#X connect 28 0 8 0;
#X connect 29 0 30 0;
#X connect 30 0 2 1;
#X connect 31 0 32 0;
#X connect 32 0 25 1;
#X connect 33 0 34 0;
#X connect 34 0 13 1;
#X connect 35 0 36 0;
#X connect 36 0 14 1;
#X connect 37 0 38 0;
#X connect 38 0 20 1;
#X connect 40 0 25 0;
#X connect 41 0 42 0;
#X connect 42 0 43 1;
#X connect 43 0 23 0;
#X connect 43 0 13 0;
#X connect 43 0 5 1;
#X connect 43 0 17 0;
#X connect 43 0 15 0;
#X connect 43 0 44 0;
#X connect 44 0 6 0;
#X connect 45 0 50 0;
#X connect 46 0 50 0;
#X connect 47 0 50 0;
#X connect 48 0 50 0;
#X connect 49 0 50 0;
#X connect 50 0 51 0;
#X connect 51 0 52 0;
#X connect 53 0 0 0;
