#N canvas 1026 52 338 692 12;
#X obj 12 116 *~, f 14;
#X obj 107 91 line~;
#X obj 240 111 line~;
#X obj 166 86 loadbang;
#X msg 166 111 1;
#X obj 166 141 -~, f 11;
#X obj 12 141 *~, f 19;
#X obj 85 171 +~, f 12;
#X obj 85 646 outlet~;
#X obj 358 147 sel 0;
#X msg 358 177 0;
#X obj 240 61 spigot;
#X obj 240 36 f;
#X obj 390 177 t b f;
#X obj 358 202 t f f;
#X msg 107 66 \$1 10;
#X obj 30 461 == 0;
#X msg 30 566 \$1 10;
#X obj 30 591 line~;
#X msg 240 86 \$1 10;
#X obj 30 196 r \$1-note-to-\$3;
#X obj 12 621 *~;
#X obj 12 646 outlet~;
#X obj 40 301 r \$1-lfo\$4-to-\$3;
#X obj 40 326 t b f;
#X obj 30 356 +;
#X obj 40 381 r \$1-adsr\$4-to-\$3;
#X obj 40 406 t b f;
#X obj 30 436 +;
#X obj 12 11 r~ \$1-lfo\$2;
#X obj 107 11 r \$1-lfo\$2-to-\$3;
#X obj 240 11 r \$1-lfo\$2-to-\$3-amount;
#X connect 0 0 6 0;
#X connect 1 0 0 1;
#X connect 2 0 5 1;
#X connect 2 0 6 1;
#X connect 3 0 4 0;
#X connect 4 0 5 0;
#X connect 5 0 7 1;
#X connect 6 0 7 0;
#X connect 6 0 21 0;
#X connect 7 0 8 0;
#X connect 9 0 10 0;
#X connect 9 1 13 0;
#X connect 10 0 14 0;
#X connect 11 0 19 0;
#X connect 12 0 11 0;
#X connect 13 0 12 0;
#X connect 13 1 11 1;
#X connect 14 0 19 0;
#X connect 14 1 11 1;
#X connect 15 0 1 0;
#X connect 16 0 17 0;
#X connect 17 0 18 0;
#X connect 18 0 21 1;
#X connect 19 0 2 0;
#X connect 20 0 25 0;
#X connect 21 0 22 0;
#X connect 23 0 24 0;
#X connect 24 0 25 0;
#X connect 24 1 25 1;
#X connect 25 0 28 0;
#X connect 26 0 27 0;
#X connect 27 0 28 0;
#X connect 27 1 28 1;
#X connect 28 0 16 0;
#X connect 29 0 0 0;
#X connect 30 0 15 0;
#X connect 30 0 9 0;
#X connect 31 0 12 0;
