#N canvas 2 52 1362 692 12;
#X obj 112 158 +~;
#X obj 14 328 +~, f 6;
#X obj 14 403 *~, f 21;
#X obj 112 208 *~, f 5;
#X obj 14 453 outlet~;
#X obj 54 238 ./lfomng \$1 0 \$2;
#X obj 130 73 ./lfomng \$1 1 \$2;
#X obj 112 18 ./notemng \$1 \$2;
#X obj 130 133 *~ \$3;
#X obj 54 298 *~ \$3;
#X obj 14 208 *~ \$3;
#X obj 32 378 *~ \$3;
#X obj 112 43 *~ \$3;
#X obj 112 103 *~, f 19;
#X obj 14 268 *~, f 22;
#X obj 14 428 +~;
#X obj 14 183 ./envmng \$1 1 \$2 -1;
#X obj 32 353 ./envmng \$1 0 \$2 1;
#X connect 0 0 3 0;
#X connect 1 0 2 0;
#X connect 2 0 15 0;
#X connect 3 0 1 0;
#X connect 5 0 9 0;
#X connect 5 1 14 1;
#X connect 6 0 8 0;
#X connect 6 1 13 1;
#X connect 7 0 12 0;
#X connect 8 0 0 1;
#X connect 9 0 1 1;
#X connect 10 0 14 0;
#X connect 11 0 15 1;
#X connect 12 0 13 0;
#X connect 13 0 0 0;
#X connect 14 0 1 0;
#X connect 15 0 4 0;
#X connect 16 0 10 0;
#X connect 16 1 3 1;
#X connect 17 0 11 0;
#X connect 17 1 2 1;
