#N canvas 913 52 451 692 12;
#X obj 12 167 spigot;
#X obj 51 137 == 0;
#X obj 93 42 loadbang;
#X msg 93 72 1;
#X obj 93 167 -;
#X obj 103 112 spigot;
#X obj 103 137 t b f;
#X obj 12 12 r \$1-note-map;
#X obj 93 197 *, f 5;
#X obj 142 12 r \$1-note-to-\$2-invert;
#X obj 93 273 line~;
#X obj 93 298 *~, f 7;
#X msg 139 247 \$1 1;
#X obj 139 272 line~;
#X msg 93 248 \$1 10;
#X obj 139 222 r \$1-note-to-\$2;
#X obj 93 323 outlet~;
#X obj 125 167 r \$1-note-to-\$2-amount;
#X connect 0 0 8 0;
#X connect 1 0 0 1;
#X connect 2 0 3 0;
#X connect 3 0 4 0;
#X connect 4 0 8 0;
#X connect 5 0 6 0;
#X connect 6 0 4 0;
#X connect 6 1 4 1;
#X connect 7 0 5 0;
#X connect 7 0 0 0;
#X connect 8 0 14 0;
#X connect 9 0 1 0;
#X connect 9 0 5 1;
#X connect 10 0 11 0;
#X connect 11 0 16 0;
#X connect 12 0 13 0;
#X connect 13 0 11 1;
#X connect 14 0 10 0;
#X connect 15 0 12 0;
#X connect 17 0 8 1;
