#N canvas 2 52 1362 692 12;
#X obj 12 12 inlet;
#X obj 12 42 route note lfo1 env1 lfo0 env0;
#N canvas 685 52 679 692 note 0;
#X obj 12 12 inlet;
#X obj 12 37 route float amount invert;
#X msg 22 92 set \$1;
#X obj 12 67 != 0;
#X obj 22 117 s \$1-note-to-\$2-r;
#X obj 12 142 s \$1-note-to-\$2;
#X msg 79 172 set \$1;
#X obj 79 197 s \$1-note-to-\$2-amount-r;
#X obj 69 222 s \$1-note-to-\$2-amount;
#X msg 136 277 set \$1;
#X obj 126 252 != 0;
#X obj 136 302 s \$1-note-to-\$2-invert-r;
#X obj 126 327 s \$1-note-to-\$2-invert;
#X obj 184 387 s \$1-error;
#X obj 201 37 loadbang;
#X msg 201 62 0;
#X connect 0 0 1 0;
#X connect 1 0 3 0;
#X connect 1 1 6 0;
#X connect 1 1 8 0;
#X connect 1 2 10 0;
#X connect 1 3 13 0;
#X connect 2 0 4 0;
#X connect 3 0 2 0;
#X connect 3 0 5 0;
#X connect 6 0 7 0;
#X connect 9 0 11 0;
#X connect 10 0 9 0;
#X connect 10 0 12 0;
#X connect 14 0 15 0;
#X connect 15 0 4 0;
#X connect 15 0 7 0;
#X connect 15 0 11 0;
#X restore 12 72 pd note;
#N canvas 685 52 679 692 lfo1 0;
#X obj 12 12 inlet;
#X msg 22 92 set \$1;
#X obj 12 67 != 0;
#X msg 83 172 set \$1;
#X obj 135 282 s \$1-error;
#X obj 12 37 route float amount;
#X obj 12 142 s \$1-lfo1-to-\$2;
#X obj 22 117 s \$1-lfo1-to-\$2-r;
#X obj 83 197 s \$1-lfo1-to-\$2-amount-r;
#X obj 73 222 s \$1-lfo1-to-\$2-amount;
#X obj 152 37 loadbang;
#X msg 152 62 0;
#X connect 0 0 5 0;
#X connect 1 0 7 0;
#X connect 2 0 1 0;
#X connect 2 0 6 0;
#X connect 3 0 8 0;
#X connect 5 0 2 0;
#X connect 5 1 3 0;
#X connect 5 1 9 0;
#X connect 5 2 4 0;
#X connect 10 0 11 0;
#X connect 11 0 7 0;
#X connect 11 0 8 0;
#X restore 53 97 pd lfo1;
#N canvas 685 52 679 692 lfo0 0;
#X obj 12 12 inlet;
#X msg 22 92 set \$1;
#X obj 12 67 != 0;
#X msg 83 172 set \$1;
#X obj 135 282 s \$1-error;
#X obj 12 37 route float amount;
#X obj 22 117 s \$1-lfo0-to-\$2-r;
#X obj 12 142 s \$1-lfo0-to-\$2;
#X obj 83 197 s \$1-lfo0-to-\$2-amount-r;
#X obj 73 222 s \$1-lfo0-to-\$2-amount;
#X obj 152 37 loadbang;
#X msg 152 62 0;
#X connect 0 0 5 0;
#X connect 1 0 6 0;
#X connect 2 0 1 0;
#X connect 2 0 7 0;
#X connect 3 0 8 0;
#X connect 5 0 2 0;
#X connect 5 1 3 0;
#X connect 5 1 9 0;
#X connect 5 2 4 0;
#X connect 10 0 11 0;
#X connect 11 0 6 0;
#X connect 11 0 8 0;
#X restore 136 97 pd lfo0;
#N canvas 685 52 679 692 env1 0;
#X obj 12 12 inlet;
#X msg 22 92 set \$1;
#X obj 12 67 != 0;
#X msg 83 172 set \$1;
#X obj 135 282 s \$1-error;
#X obj 12 37 route float amount;
#X obj 22 117 s \$1-env1-to-\$2-r;
#X obj 12 142 s \$1-env1-to-\$2;
#X obj 83 197 s \$1-env1-to-\$2-amount-r;
#X obj 73 222 s \$1-env1-to-\$2-amount;
#X obj 152 37 loadbang;
#X msg 152 62 0;
#X connect 0 0 5 0;
#X connect 1 0 6 0;
#X connect 2 0 1 0;
#X connect 2 0 7 0;
#X connect 3 0 8 0;
#X connect 5 0 2 0;
#X connect 5 1 3 0;
#X connect 5 1 9 0;
#X connect 5 2 4 0;
#X connect 10 0 11 0;
#X connect 11 0 6 0;
#X connect 11 0 8 0;
#X restore 94 72 pd env1;
#N canvas 685 52 679 692 env0 0;
#X obj 12 12 inlet;
#X msg 22 92 set \$1;
#X obj 12 67 != 0;
#X msg 83 172 set \$1;
#X obj 135 282 s \$1-error;
#X obj 12 37 route float amount;
#X obj 22 117 s \$1-env0-to-\$2-r;
#X obj 12 142 s \$1-env0-to-\$2;
#X obj 83 197 s \$1-env0-to-\$2-amount-r;
#X obj 73 222 s \$1-env0-to-\$2-amount;
#X obj 152 37 loadbang;
#X msg 152 62 0;
#X connect 0 0 5 0;
#X connect 1 0 6 0;
#X connect 2 0 1 0;
#X connect 2 0 7 0;
#X connect 3 0 8 0;
#X connect 5 0 2 0;
#X connect 5 1 3 0;
#X connect 5 1 9 0;
#X connect 5 2 4 0;
#X connect 10 0 11 0;
#X connect 11 0 6 0;
#X connect 11 0 8 0;
#X restore 177 72 pd env0;
#X obj 219 137 s \$1-error;
#X connect 0 0 1 0;
#X connect 1 0 2 0;
#X connect 1 1 3 0;
#X connect 1 2 5 0;
#X connect 1 3 4 0;
#X connect 1 4 6 0;
#X connect 1 5 7 0;
