#N canvas 913 52 451 692 12;
#X obj 193 34 loadbang;
#X obj 193 59 t b b;
#X msg 59 484 pos 654 109;
#X msg 154 484 pos \$1 \$2;
#X obj 59 354 sel 0, f 14;
#X obj 193 384 + 35;
#X obj 228 384 + 31;
#X obj 154 459 pack, f 11;
#X obj 193 350 * 21;
#X msg 193 209 0;
#X msg 234 209 1;
#X msg 275 209 2;
#X msg 317 209 3;
#X msg 358 209 4;
#X msg 228 310 0;
#X msg 266 310 1;
#X msg 305 310 2;
#X msg 343 310 3;
#X msg 382 310 4;
#X obj 228 350 * 20;
#X obj 154 409 f, f 6;
#X msg 154 385 bang;
#X obj 193 84 symbol \$2;
#X obj 228 134 symbol \$3;
#X obj 59 329 r \$1-\$2-to-\$3;
#X obj 154 524 s \$1-\$2-to-\$3-tog;
#X obj 193 109 list trim;
#X obj 228 159 list trim;
#X obj 228 434 + 109;
#X obj 154 434 + 653;
#X obj 228 285 route harm mod freq res amp;
#X obj 193 184 route note lfo1 env1 lfo0 env0;
#X connect 0 0 1 0;
#X connect 1 0 22 0;
#X connect 1 1 23 0;
#X connect 2 0 25 0;
#X connect 3 0 25 0;
#X connect 4 0 2 0;
#X connect 4 1 21 0;
#X connect 5 0 20 1;
#X connect 6 0 28 0;
#X connect 7 0 3 0;
#X connect 8 0 5 0;
#X connect 9 0 8 0;
#X connect 10 0 8 0;
#X connect 11 0 8 0;
#X connect 12 0 8 0;
#X connect 13 0 8 0;
#X connect 14 0 19 0;
#X connect 15 0 19 0;
#X connect 16 0 19 0;
#X connect 17 0 19 0;
#X connect 18 0 19 0;
#X connect 19 0 6 0;
#X connect 20 0 29 0;
#X connect 21 0 20 0;
#X connect 22 0 26 0;
#X connect 23 0 27 0;
#X connect 24 0 4 0;
#X connect 26 0 31 0;
#X connect 27 0 30 0;
#X connect 28 0 7 1;
#X connect 29 0 7 0;
#X connect 30 0 14 0;
#X connect 30 1 15 0;
#X connect 30 2 16 0;
#X connect 30 3 17 0;
#X connect 30 4 18 0;
#X connect 31 0 9 0;
#X connect 31 1 10 0;
#X connect 31 2 11 0;
#X connect 31 3 12 0;
#X connect 31 4 13 0;
