#N canvas 913 52 451 692 12;
#X obj 225 164 r \$1-\$2-to-\$3;
#X obj 257 444 pack symbol symbol symbol;
#X msg 257 469 color \$1 \$2 \$3;
#X obj 257 389 symbol;
#X msg 296 314 #d83814;
#X msg 359 314 #1874c4;
#X msg 551 314 #202020;
#X msg 257 414 list \$1 #f4f4dc #202020;
#X obj 296 214 loadbang;
#X obj 296 264 list trim;
#X obj 296 239 symbol \$2;
#X obj 225 189 sel 0;
#X msg 47 414 list #f4f4dc #202020 #202020;
#X msg 257 214 bang;
#X obj 296 364 symbol;
#X obj 492 423 spigot;
#X msg 531 398 1;
#X obj 492 448 s \$1-\$2-to-\$3-invert-r;
#X obj 257 494 s \$1-\$2-to-\$3-amount-r;
#X msg 487 314 #14a464;
#X msg 423 314 #ec9438;
#X obj 296 289 route note lfo1 env1 lfo0 env0, f 46;
#X connect 0 0 11 0;
#X connect 1 0 2 0;
#X connect 2 0 15 0;
#X connect 2 0 18 0;
#X connect 3 0 7 0;
#X connect 4 0 14 0;
#X connect 5 0 14 0;
#X connect 6 0 14 0;
#X connect 7 0 1 0;
#X connect 8 0 10 0;
#X connect 9 0 21 0;
#X connect 10 0 9 0;
#X connect 11 0 12 0;
#X connect 11 1 13 0;
#X connect 12 0 1 0;
#X connect 13 0 3 0;
#X connect 14 0 3 1;
#X connect 15 0 17 0;
#X connect 16 0 15 1;
#X connect 19 0 14 0;
#X connect 20 0 14 0;
#X connect 21 0 4 0;
#X connect 21 0 16 0;
#X connect 21 1 5 0;
#X connect 21 2 20 0;
#X connect 21 3 19 0;
#X connect 21 4 6 0;
